<svg id="59b64a4c-200d-46c0-ae24-3ffb325b363c" data-name="Layer 1" xmlns="http://www.w3.org/2000/svg" xmlns:xlink="http://www.w3.org/1999/xlink" viewBox="0 0 12.39 24.7"><defs><style>.\33 0fc8a76-10a6-4ede-83b1-518b5b379f9e{fill:none;}.\32 94e7c43-ff41-4695-8115-2fcb0ca7a75e{fill:#2274a5;}.\37 dbf25ab-5d4b-487d-aa81-eb595acfbd38{clip-path:url(#2e58f281-f5bf-4d01-a016-8baeb2c518df);}</style><clipPath id="2e58f281-f5bf-4d01-a016-8baeb2c518df"><circle class="30fc8a76-10a6-4ede-83b1-518b5b379f9e" cx="63.5" cy="132.92" r="13.5"/></clipPath></defs><title>clip</title><path class="294e7c43-ff41-4695-8115-2fcb0ca7a75e" d="M12.32,5.76H10.71c0,4.13,0,8.52,0,12.52,0,2.85-1.9,4.74-4.47,4.75s-4.44-1.88-4.48-4.72c-.07-4.43-.05-8.86,0-13.3,0-2.09,1.06-3.27,2.76-3.29S7.3,2.88,7.33,5c0,3.49.06,7,0,10.48,0,.65-.57,1.75-1,1.81-1.27.19-1.18-1-1.18-1.82,0-2.67,0-7,0-9.67H3.41c0,2.94,0,7.52,0,10.4a2.8,2.8,0,1,0,5.59.1c.05-4,.08-8,0-12A4.42,4.42,0,0,0,4.44,0,4.4,4.4,0,0,0,.07,4.27C0,9.14,0,14,.07,18.88a6.08,6.08,0,0,0,5.75,5.85c3.1.2,6.21-1.94,6.41-5.06C12.53,15.15,12.33,10.39,12.32,5.76Z"/></svg>