<svg id="679ac4bb-6d7d-401f-99cd-0471f4dd91b3" data-name="Layer 1" xmlns="http://www.w3.org/2000/svg" xmlns:xlink="http://www.w3.org/1999/xlink" viewBox="0 0 21.78 14.52"><defs><style>.\33 f607154-28f6-4867-90a4-fb9ec30cc17d{fill:none;clip-rule:evenodd;}.\37 918116c-d283-40db-818f-cd16fc4eb526{clip-path:url(#096b49e1-5f9f-47c2-b51b-8671311247ea);}.\34 3c69e32-9e65-4ce0-9c3a-a8ffb0bec6c0{fill:#139aea;}</style><clipPath id="096b49e1-5f9f-47c2-b51b-8671311247ea"><path class="3f607154-28f6-4867-90a4-fb9ec30cc17d" d="M13.84,7.22l7.26,7.26a.78.78,0,0,1-.22,0H.91a.78.78,0,0,1-.22,0L8,7.22,10.6,9.43a.46.46,0,0,0,.29.1.43.43,0,0,0,.29-.1ZM.06.64l7.19,6L.05,13.84a.87.87,0,0,1,0-.22V.91A.76.76,0,0,1,.06.64ZM21.78.91V13.62a.93.93,0,0,1,0,.22l-7.2-7.21,7.19-6A.76.76,0,0,1,21.78.91ZM10.89,8.49.75,0A.76.76,0,0,1,.91,0h20A.9.9,0,0,1,21,0Z"/></clipPath></defs><title>email</title><g class="7918116c-d283-40db-818f-cd16fc4eb526"><rect class="43c69e32-9e65-4ce0-9c3a-a8ffb0bec6c0" x="-5" y="-5" width="31.78" height="24.52"/></g></svg>