<?xml version="1.0" encoding="utf-8"?>
<!-- Generator: Adobe Illustrator 22.0.1, SVG Export Plug-In . SVG Version: 6.00 Build 0)  -->
<svg version="1.1" id="Capa_1" xmlns="http://www.w3.org/2000/svg" xmlns:xlink="http://www.w3.org/1999/xlink" x="0px" y="0px"
	 viewBox="0 0 511.6 383.4" style="enable-background:new 0 0 511.6 383.4;" xml:space="preserve">
<style type="text/css">
	.st0{fill:#B7B7B7;}
</style>
<g>
	<g>
		<path class="st0" d="M361.2,227.7c15-21.8,22.6-45.9,22.6-72.4c0-7.4-0.8-15.4-2.3-24l-79.9,143.3
			C326.2,265.2,346.1,249.5,361.2,227.7z"/>
		<path class="st0" d="M372.9,30.3c0.2-0.4,0.3-1.2,0.3-2.6c0-3.2-1.5-5.8-4.6-7.7c-0.6-0.4-2.4-1.5-5.6-3.3c-3.1-1.8-6.1-3.6-9-5.3
			c-2.9-1.7-6-3.5-9.4-5.3c-3.4-1.8-6.4-3.3-8.8-4.4c-2.5-1.1-4.2-1.7-5.1-1.7c-3.4,0-6.1,1.5-8,4.6l-15.4,27.7
			c-17.3-3.2-34.5-4.9-51.4-4.9c-51.2,0-98.4,12.9-141.6,38.8C71,92.1,34.8,127.4,5.7,172.2C1.9,178.1,0,184.6,0,191.9
			c0,7.2,1.9,13.8,5.7,19.7c16.7,26.1,36.6,49.4,59.5,69.9c22.9,20.6,48,37,75.2,49.4c-8.4,14.3-12.6,22.6-12.6,24.8
			c0,3.4,1.5,6.1,4.6,8c23.2,13.3,36,20,38.3,20c3.4,0,6.1-1.5,8-4.6l14-25.4c20.2-36,50.2-89.9,90.2-161.9
			C322.9,119.9,352.9,66.1,372.9,30.3z M158.5,298.9C109,276.7,68.3,241,36.5,191.9c28.9-44.9,65.2-78.5,108.8-100.8
			c-11.6,19.8-17.4,41.2-17.4,64.2c0,20.4,4.7,39.7,14,58c9.3,18.3,22.3,33.4,38.8,45.4L158.5,298.9z M265.5,91.9
			c-2.7,2.7-5.9,4-9.7,4c-16.4,0-30.4,5.8-42,17.4c-11.6,11.6-17.4,25.6-17.4,42c0,3.8-1.3,7-4,9.7c-2.7,2.7-5.9,4-9.7,4
			c-3.8,0-7-1.3-9.7-4c-2.7-2.7-4-5.9-4-9.7c0-23.8,8.5-44.2,25.6-61.2c17-17,37.4-25.6,61.2-25.6c3.8,0,7,1.3,9.7,4
			c2.7,2.7,4,5.9,4,9.7C269.5,86,268.2,89.3,265.5,91.9z"/>
		<path class="st0" d="M505.9,172.2c-10.9-18.1-24.6-35.6-41.3-52.5c-16.6-16.9-34-31.5-52.1-43.7l-18,32
			c31.8,21.9,58.6,49.9,80.5,83.9c-23,35.8-51.7,65-86.1,87.6c-34.4,22.7-71.7,35.7-112.1,39.1l-21.1,37.7c42.3,0,82.2-9,119.8-27.1
			c37.6-18.1,70.7-43.5,99.2-76.2c13.3-15.4,23.7-29.2,31.1-41.4c3.8-6.5,5.7-13,5.7-19.7C511.6,185.2,509.7,178.6,505.9,172.2z"/>
	</g>
</g>
</svg>
