<?xml version="1.0" encoding="UTF-8"?>
<svg width="23px" height="21px" viewBox="0 0 23 21" version="1.1" xmlns="http://www.w3.org/2000/svg" xmlns:xlink="http://www.w3.org/1999/xlink">
    <!-- Generator: Sketch 50.2 (55047) - http://www.bohemiancoding.com/sketch -->
    <title>Shape Copy 71</title>
    <desc>Created with Sketch.</desc>
    <defs></defs>
    <g id="Page-1" stroke="none" stroke-width="1" fill="none" fill-rule="evenodd">
        <g id="BP_Desktop" transform="translate(-30.000000, -119.000000)" fill="#1779ba">
            <g id="Left-Nav-Background-Summary">
                <path d="M52.748732,126.002909 L43.3624528,119.581324 C42.2308553,118.806225 40.7669085,118.806225 39.636461,119.581324 L30.2501818,126.002909 C29.9879824,126.182309 29.9212825,126.539958 30.1006821,126.802158 C30.2800817,127.064357 30.6388809,127.132207 30.8999304,126.951657 L32.3006273,125.99371 L32.3006273,137.403984 C32.3006273,138.674731 33.329875,139.703979 34.6006222,139.703979 L48.4005916,139.703979 C49.6713388,139.703979 50.7005865,138.674731 50.7005865,137.403984 L50.7005865,125.99371 L52.1012834,126.951657 C52.2001832,127.019507 52.314033,127.051707 52.4255827,127.051707 C52.6084323,127.051707 52.7878319,126.964307 52.9005317,126.801008 C53.0787813,126.538808 53.0120814,126.181159 52.749882,126.001759 L52.748732,126.002909 Z M38.0494645,138.553982 L38.0494645,132.803994 C38.0494645,132.170346 38.5658134,131.653997 39.199462,131.653997 L43.7994518,131.653997 C44.4331004,131.653997 44.9494493,132.170346 44.9494493,132.803994 L44.9494493,138.553982 L38.0494645,138.553982 L38.0494645,138.553982 Z M49.5494391,137.403984 C49.5494391,138.037633 49.0330902,138.553982 48.3994416,138.553982 L46.0994467,138.553982 L46.0994467,132.803994 C46.0994467,131.533247 45.070199,130.504 43.7994518,130.504 L39.199462,130.504 C37.9287148,130.504 36.8994671,131.533247 36.8994671,132.803994 L36.8994671,138.553982 L34.5994722,138.553982 C33.9658236,138.553982 33.4494747,138.037633 33.4494747,137.403984 L33.4494747,125.207111 L40.2850596,120.530072 C41.022208,120.025223 41.9744058,120.026373 42.7127042,120.530072 L49.5482891,125.207111 L49.5482891,137.403984 L49.5494391,137.403984 Z" id="Shape-Copy-71"></path>
            </g>
        </g>
    </g>
</svg>