<svg version="1.1" xmlns="http://www.w3.org/2000/svg" xmlns:xlink="http://www.w3.org/1999/xlink" x="0px" y="0px" viewBox="0 0 20.5 19.2" style="enable-background:new 0 0 20.5 19.2;" xml:space="preserve"><path fill="#b7b7b7" d="M18.5,7.9H6.2l4.3-4.5c0.7-0.7,0.7-2,0-2.7c-0.4-0.4-0.8-0.6-1.3-0.6c-0.5,0-0.9,0.2-1.3,0.6L0.6,8.4c-0.7,0.7-0.7,2,0,2.7l7.3,7.6c0.7,0.7,1.9,0.7,2.6,0c0.7-0.7,0.7-2,0-2.7l-4-4.1h11.9c1.1,0,2-0.9,2-2S19.6,7.9,18.5,7.9z"/><g><clipPath><rect x="-680" y="-502" width="1440" height="1088"/></clipPath><clipPath><rect x="-680" y="-502" width="1440" height="1088"/></clipPath></g></svg>