<?xml version="1.0" encoding="UTF-8"?>
<svg width="20px" height="20px" viewBox="0 0 20 20" version="1.1" xmlns="http://www.w3.org/2000/svg" xmlns:xlink="http://www.w3.org/1999/xlink">
    <!-- Generator: Sketch 50.2 (55047) - http://www.bohemiancoding.com/sketch -->
    <title>Group 14</title>
    <desc>Created with Sketch.</desc>
    <defs></defs>
    <g id="Page-1" stroke="none" stroke-width="1" fill="none" fill-rule="evenodd">
        <g id="BP_Desktop" transform="translate(-1376.000000, -17.000000)" fill="blue">
            <g id="Left-Nav-Background-Summary">
                <g id="Group-19" transform="translate(1348.000000, 17.000000)">
                    <g id="Group-17">
                        <g id="Group-14" transform="translate(28.000000, 0.000000)">
                            <g id="Group-11">
                                <path d="M10,0 C4.5,0 0,4.50025001 0,10.0005556 C0,13.7507639 2,16.875382 5,18.6254792 C5.37555556,18.8754931 5.87444444,19.125507 6.25,19.2499583 C7.37444444,19.7499861 8.62444444,20 10,20 C11.3755556,20 12.6244444,19.7499861 13.75,19.2499583 C14.1255556,19.1243958 14.6244444,18.8743819 15,18.6254792 C18,16.875382 20,13.6252014 20,10.0005556 C20,4.50025001 15.5,0 10,0 L10,0 Z M10,18.7510417 C8.62555556,18.7510417 7.37555556,18.3765765 6.25,17.8765487 L6.25,16.252014 C6.25,14.1274515 7.87444444,12.5018057 10,12.5018057 C12.1255556,12.5018057 13.75,14.1263404 13.75,16.252014 L13.75,17.8765487 C12.6255556,18.3765765 11.3755556,18.7510417 10,18.7510417 L10,18.7510417 Z M7.5,8.75048614 C7.5,7.37596533 8.62444444,6.25034724 10,6.25034724 C11.3755556,6.25034724 12.5,7.37485416 12.5,8.75048614 C12.5,10.1250069 11.3755556,11.250625 10,11.250625 C8.62444444,11.250625 7.5,10.1261181 7.5,8.75048614 L7.5,8.75048614 Z M15,17.1253959 L15,16.2509028 C15,14.2507917 13.8755556,12.626257 12.25,11.7506528 C13.1244444,11.1261737 13.75,10.0005556 13.75,8.75048614 C13.75,6.62592366 12.1255556,5.00027779 10,5.00027779 C7.87444444,5.00027779 6.25,6.62481249 6.25,8.75048614 C6.25,10.0005556 6.87444444,11.1250625 7.75,11.7506528 C6.12555556,12.6251458 5,14.2507917 5,16.2509028 L5,17.1253959 C2.75,15.6253125 1.25,13.0007223 1.25,10.0005556 C1.25,5.12584032 5.12444444,1.25006945 10,1.25006945 C14.8755556,1.25006945 18.75,5.12472915 18.75,10.0005556 C18.75,13.0007223 17.25,15.6253125 15,17.1253959 L15,17.1253959 Z" id="Shape-Copy-53"></path>
                            </g>
                        </g>
                    </g>
                </g>
            </g>
        </g>
    </g>
</svg>