<?xml version="1.0" encoding="UTF-8"?>
<svg width="18px" height="22px" viewBox="0 0 18 22" version="1.1" xmlns="http://www.w3.org/2000/svg" xmlns:xlink="http://www.w3.org/1999/xlink">
    <!-- Generator: Sketch 50.2 (55047) - http://www.bohemiancoding.com/sketch -->
    <title>Shape Copy 118</title>
    <desc>Created with Sketch.</desc>
    <defs></defs>
    <g id="Page-1" stroke="none" stroke-width="1" fill="none" fill-rule="evenodd">
        <g id="BP-mobile" transform="translate(-32.000000, -394.000000)" fill="#555">
            <path d="M48.7142857,410.623181 L48.7142857,404.060681 C48.7142857,400.152056 45.9217143,396.916744 42.2625714,396.299869 C42.2664286,396.260494 42.2857143,396.226369 42.2857143,396.185681 C42.2857143,395.461181 41.7097143,394.873181 41,394.873181 C40.2902857,394.873181 39.7142857,395.461181 39.7142857,396.185681 C39.7142857,396.226369 39.7335714,396.260494 39.7374286,396.299869 C36.0795714,396.916744 33.2857143,400.150744 33.2857143,404.060681 L33.2857143,410.623181 L32,410.623181 L32,411.935681 L37.1428571,411.935681 C37.1428571,414.110494 38.8695714,415.873181 41,415.873181 C43.1304286,415.873181 44.8571429,414.110494 44.8571429,411.935681 L50,411.935681 L50,410.623181 L48.7142857,410.623181 L48.7142857,410.623181 Z M35,404.301753 C35,400.757039 37.6916,397.873181 41,397.873181 C44.3084,397.873181 47,400.757039 47,404.301753 L47,406.873181 L35,406.873181 L35,404.301753 L35,404.301753 Z M41,414.373181 C39.897,414.373181 39,413.251931 39,411.873181 L43,411.873181 C43,413.251931 42.103,414.373181 41,414.373181 L41,414.373181 Z M35,409.873181 L35,407.873181 L47,407.873181 L47,409.873181 L35,409.873181 L35,409.873181 Z" id="Shape-Copy-118"></path>
        </g>
    </g>
</svg>