<?xml version="1.0" encoding="UTF-8"?>
<svg width="20px" height="9px" viewBox="0 0 20 9" version="1.1" xmlns="http://www.w3.org/2000/svg" xmlns:xlink="http://www.w3.org/1999/xlink">
    <!-- Generator: Sketch 50.2 (55047) - http://www.bohemiancoding.com/sketch -->
    <title>Group 5</title>
    <desc>Created with Sketch.</desc>
    <defs></defs>
    <g id="Page-1" stroke="#1779ba" stroke-width="1" fill="#1779ba" fill-rule="evenodd">
        <g id="BP_Desktop" transform="translate(-1258.000000, -23.000000)" fill="#FFFFFF">
            <g id="Left-Nav-Background-Summary">
                <g id="Group-5" transform="translate(1258.000000, 23.000000)">
                    <path d="M4.28571429,4.5 C4.28571429,5.4 3.71428571,6 2.85714286,6 C2,6 1.42857143,5.4 1.42857143,4.5 C1.42857143,3.6 2,3 2.85714286,3 C3.71428571,3 4.28571429,3.6 4.28571429,4.5 L4.28571429,4.5 Z M18.5714286,3 L8.28571429,3 C7.71428571,1.2 6.14285714,0 4.28571429,0 C1.85714286,0 0,1.95 0,4.5 C0,7.05 1.85714286,9 4.28571429,9 C6.14285714,9 7.71428571,7.8 8.28571429,6 L10,6 L11.4285714,7.5 L12.8571429,6 L14.2857143,7.5 L15.7142857,6 L17.1428571,7.5 L20,4.5 L18.5714286,3 L18.5714286,3 Z" id="Shape-Copy-51"></path>
                </g>
            </g>
        </g>
    </g>
</svg>