<svg id="97052aad-82a4-4b75-ac26-46a644c6a167" data-name="Layer 1" xmlns="http://www.w3.org/2000/svg" xmlns:xlink="http://www.w3.org/1999/xlink" viewBox="0 0 13.35 16.53"><defs><style>.\34 8230428-bc53-4f8d-8f9f-1c4d8e8245ed{fill:none;clip-rule:evenodd;}.\32 33b3d20-e16f-4380-9bef-e8b72b69efa2{clip-path:url(#08901c44-2132-457a-b0cb-801cc11ecf1f);}.\39 966fd68-3601-4fa4-bd20-f1b32c78756c{fill:#139aea;}</style><clipPath id="08901c44-2132-457a-b0cb-801cc11ecf1f"><path class="48230428-bc53-4f8d-8f9f-1c4d8e8245ed" d="M13.25,14.36h0l-2.34-3.29a.58.58,0,0,0-.8-.14L8.59,12c-.59.42-1.16-.14-2.23-1.37a18.24,18.24,0,0,1-2.15-3C3.75,6.79,3.37,6,4,5.51l.32-.23,1.2-.84h0a.58.58,0,0,0,.14-.81h0L3.25.24a.58.58,0,0,0-.8-.13L.92,1.18c-.66.58-2.4,3.58,1.82,9.7,4.45,6.46,8.14,5.87,8.84,5.35l.33-.22,1.2-.84h0a.58.58,0,0,0,.14-.81"/></clipPath></defs><title>phone</title><g class="233b3d20-e16f-4380-9bef-e8b72b69efa2"><rect class="9966fd68-3601-4fa4-bd20-f1b32c78756c" x="-3.8" y="-5.66" width="20.17" height="28.12" transform="translate(-2.07 2.06) rotate(-16)"/></g></svg>