<svg id="808f9621-316b-4cdd-bfdd-e056b852f9c0" data-name="Layer 1" xmlns="http://www.w3.org/2000/svg" xmlns:xlink="http://www.w3.org/1999/xlink" viewBox="0 0 70 70"><defs><style>.d8dabcfc-29b7-4eb5-8cf7-a17a016fd36b,.fc87e54b-1f14-4c42-b30c-ce348a13da37{fill:none;}.d8dabcfc-29b7-4eb5-8cf7-a17a016fd36b{clip-rule:evenodd;}.\30 dba6c5d-9d6a-4bcd-834c-2f2d5273b1b3{clip-path:url(#06b32901-ab42-477f-8907-95311714078f);}.ae1907ad-09f2-443d-8ea8-03d2d059f54f{fill:#e83f6f;}.\36 e8153cd-79e4-42dc-9c89-c6ed937abcc6{clip-path:url(#ba435774-60c3-4b88-a66e-d0f2a3cadca3);}.\30 ea30909-4a21-4a70-ab1f-f5439f8080e8{fill:#fff;}</style><clipPath id="06b32901-ab42-477f-8907-95311714078f"><circle class="fc87e54b-1f14-4c42-b30c-ce348a13da37" cx="35" cy="35" r="35"/></clipPath><clipPath id="ba435774-60c3-4b88-a66e-d0f2a3cadca3"><path class="d8dabcfc-29b7-4eb5-8cf7-a17a016fd36b" d="M46,20H24v7.33H46Zm1.83,16.5a1.84,1.84,0,1,1,1.84-1.83A1.83,1.83,0,0,1,47.83,36.5Zm-5.5,12.83H27.67V40.17H42.33Zm5.5-20.16H22.17a5.5,5.5,0,0,0-5.5,5.5v11H24V53H46V45.67h7.33v-11A5.5,5.5,0,0,0,47.83,29.17Z"/></clipPath></defs><title>print_sign</title><g class="0dba6c5d-9d6a-4bcd-834c-2f2d5273b1b3"><rect class="ae1907ad-09f2-443d-8ea8-03d2d059f54f" x="-5" y="-5" width="80" height="80"/></g><g class="6e8153cd-79e4-42dc-9c89-c6ed937abcc6"><rect class="0ea30909-4a21-4a70-ab1f-f5439f8080e8" x="11.67" y="15" width="46.67" height="43"/></g></svg>