<?xml version="1.0" encoding="utf-8"?>
<!-- Generator: Adobe Illustrator 22.0.1, SVG Export Plug-In . SVG Version: 6.00 Build 0)  -->
<svg version="1.1" id="Capa_1" xmlns="http://www.w3.org/2000/svg" xmlns:xlink="http://www.w3.org/1999/xlink" x="0px" y="0px"
	 viewBox="0 0 511.6 328.9" style="enable-background:new 0 0 511.6 328.9;" xml:space="preserve">
<style type="text/css">
	.st0{fill:#B7B7B7;}
</style>
<g>
	<path class="st0" d="M505.9,144.8c-26.7-43.6-62.5-78.6-107.5-105.1C353.4,13.2,305.9,0,255.8,0s-97.6,13.2-142.6,39.7
		c-45,26.5-80.8,61.5-107.5,105.1C1.9,151.4,0,158,0,164.5s1.9,13,5.7,19.7c26.6,43.6,62.5,78.6,107.5,105.1
		c45,26.5,92.6,39.7,142.6,39.7c50.1,0,97.6-13.2,142.6-39.5c45-26.4,80.9-61.4,107.5-105.2c3.8-6.7,5.7-13.2,5.7-19.7
		C511.6,158,509.7,151.4,505.9,144.8z M194.6,66.7c17-17,37.4-25.6,61.2-25.6c3.8,0,7,1.3,9.7,4c2.7,2.7,4,5.9,4,9.7
		c0,3.8-1.3,7-4,9.7c-2.7,2.7-5.9,4-9.7,4c-16.4,0-30.4,5.8-42,17.4c-11.6,11.6-17.4,25.6-17.4,42c0,3.8-1.3,7-4,9.7
		c-2.7,2.7-5.9,4-9.7,4c-3.8,0-7-1.3-9.7-4c-2.7-2.7-4-5.9-4-9.7C169,104.1,177.5,83.7,194.6,66.7z M379.9,257.7
		c-38.2,23.1-79.5,34.7-124.1,34.7c-44.5,0-85.9-11.6-124.1-34.7s-69.9-54.2-95.2-93.2c28.9-44.9,65.2-78.5,108.8-100.8
		c-11.6,19.8-17.4,41.2-17.4,64.2c0,35.2,12.5,65.3,37.5,90.4s55.2,37.5,90.4,37.5c35.2,0,65.3-12.5,90.4-37.5s37.5-55.1,37.5-90.4
		c0-23-5.8-44.4-17.4-64.2c43.6,22.3,79.8,55.9,108.8,100.8C449.8,203.5,418,234.5,379.9,257.7z"/>
</g>
</svg>
