<?xml version="1.0" encoding="UTF-8"?>
<svg width="27px" height="20px" viewBox="0 0 27 20" version="1.1" xmlns="http://www.w3.org/2000/svg" xmlns:xlink="http://www.w3.org/1999/xlink">
    <!-- Generator: Sketch 50.2 (55047) - http://www.bohemiancoding.com/sketch -->
    <title>Group 19</title>
    <desc>Created with Sketch.</desc>
    <defs></defs>
    <g id="Page-1" stroke="none" stroke-width="1" fill="none" fill-rule="evenodd">
        <g id="BP-mobile" transform="translate(-29.000000, -336.000000)" fill="#1779ba">
            <g id="Group-19" transform="translate(29.000000, 336.873181)">
                <g id="Group-10">
                    <path d="M3,1.46153846 L3,2.92307692 L1.5,2.92307692 L1.5,1.46153846 L3,1.46153846 L3,1.46153846 Z M3,0 L1.5,0 C0.672,0.00292307692 0.003,0.654769231 0,1.46153846 L0,2.92307692 C0.003,3.72984615 0.672,4.38169231 1.5,4.38461538 L3,4.38461538 C3.828,4.38169231 4.497,3.72984615 4.5,2.92307692 L4.5,1.46153846 C4.497,0.654769231 3.828,0.00292307692 3,0 L3,0 L3,0 Z" id="Shape-Copy-61"></path>
                    <polygon id="Shape-Copy-60" points="7.5 1.46153846 27 1.46153846 27 2.92307692 7.5 2.92307692"></polygon>
                    <path d="M3,8.76923077 L3,10.2307692 L1.5,10.2307692 L1.5,8.76923077 L3,8.76923077 L3,8.76923077 Z M3,7.30769231 L1.5,7.30769231 C0.672,7.31061538 0.003,7.96246154 0,8.76923077 L0,10.2307692 C0.003,11.0375385 0.672,11.6893846 1.5,11.6923077 L3,11.6923077 C3.828,11.6893846 4.497,11.0375385 4.5,10.2307692 L4.5,8.76923077 C4.497,7.96246154 3.828,7.31061538 3,7.30769231 L3,7.30769231 L3,7.30769231 Z" id="Shape-Copy-59"></path>
                    <polygon id="Shape-Copy-39" points="7.5 8.76923077 27 8.76923077 27 10.2307692 7.5 10.2307692"></polygon>
                    <path d="M3,16.0769231 L3,17.5384615 L1.5,17.5384615 L1.5,16.0769231 L3,16.0769231 L3,16.0769231 Z M3,14.6153846 L1.5,14.6153846 C0.672,14.6183077 0.003,15.2701538 0,16.0769231 L0,17.5384615 C0.003,18.3452308 0.672,18.9970769 1.5,19 L3,19 C3.828,18.9970769 4.497,18.3452308 4.5,17.5384615 L4.5,16.0769231 C4.497,15.2701538 3.828,14.6183077 3,14.6153846 L3,14.6153846 L3,14.6153846 Z" id="Shape-Copy-38"></path>
                    <polygon id="Shape-Copy-37" points="7.5 16.0769231 27 16.0769231 27 17.5384615 7.5 17.5384615"></polygon>
                </g>
            </g>
        </g>
    </g>
</svg>