<?xml version="1.0" encoding="UTF-8"?>
<svg width="26px" height="31px" viewBox="0 0 26 31" version="1.1" xmlns="http://www.w3.org/2000/svg" xmlns:xlink="http://www.w3.org/1999/xlink">
    <!-- Generator: Sketch 50.2 (55047) - http://www.bohemiancoding.com/sketch -->
    <title>icon-task-active</title>
    <desc>Created with Sketch.</desc>
    <defs></defs>
    <g id="Page-1" stroke="none" stroke-width="1" fill="none" fill-rule="evenodd">
        <g id="BP-mobile" transform="translate(-27.000000, -205.000000)" fill="#555">
            <g id="icon-task-active" transform="translate(27.000000, 205.000000)">
                <path d="M23.7058824,31 L2.29411765,31 C1.02929412,31 0,29.95685 0,28.675 L0,6.975 C0,5.69315 1.02929412,4.65 2.29411765,4.65 L3.82352941,4.65 C4.24564706,4.65 4.58823529,4.9972 4.58823529,5.425 C4.58823529,5.8528 4.24564706,6.2 3.82352941,6.2 L2.29411765,6.2 C1.872,6.2 1.52941176,6.5472 1.52941176,6.975 L1.52941176,28.675 C1.52941176,29.1028 1.872,29.45 2.29411765,29.45 L23.7058824,29.45 C24.128,29.45 24.4705882,29.1028 24.4705882,28.675 L24.4705882,6.975 C24.4705882,6.5472 24.128,6.2 23.7058824,6.2 L22.1764706,6.2 C21.7543529,6.2 21.4117647,5.8528 21.4117647,5.425 C21.4117647,4.9972 21.7543529,4.65 22.1764706,4.65 L23.7058824,4.65 C24.9707059,4.65 26,5.69315 26,6.975 L26,28.675 C26,29.95685 24.9707059,31 23.7058824,31 L23.7058824,31 Z" id="Shape"></path>
                <path d="M19.1191765,7.75 C19.1191765,7.75 19.1191765,7.75 19.1176471,7.75 L6.88235294,7.75 C6.46023529,7.75 6.11764706,7.4028 6.11764706,6.975 C6.11764706,5.41725 6.81047059,4.2067 8.06917647,3.56965 C8.48976471,3.35575 8.90576471,3.2395 9.23764706,3.17595 C9.56341176,1.37175 11.1264706,0 12.9984706,0 C14.8704706,0 16.4335294,1.37175 16.7592941,3.17595 C17.0927059,3.2395 17.5071765,3.35575 17.9277647,3.56965 C19.1757647,4.20205 19.8670588,5.39555 19.8792941,6.93315 C19.8808235,6.9471 19.8808235,6.96105 19.8808235,6.975 C19.8808235,7.4028 19.5382353,7.75 19.1161176,7.75 L19.1191765,7.75 L19.1191765,7.75 Z M7.73882353,6.2 L18.2611765,6.2 C18.1143529,5.6482 17.7916471,5.24365 17.2854118,4.9755 C16.6904706,4.66085 16.0618824,4.65 16.0542353,4.65 C15.6321176,4.65 15.2941176,4.3028 15.2941176,3.875 C15.2941176,2.59315 14.2648235,1.55 13,1.55 C11.7351765,1.55 10.7058824,2.59315 10.7058824,3.875 C10.7058824,4.3028 10.3632941,4.65 9.94117647,4.65 C9.93964706,4.65 9.30952941,4.66085 8.71458824,4.9755 C8.20835294,5.24365 7.88564706,5.64665 7.73882353,6.2 L7.73882353,6.2 Z" id="Shape"></path>
                <path d="M13,4.65 C12.7981176,4.65 12.6008235,4.56785 12.4601176,4.42215 C12.3194118,4.27645 12.2352941,4.07805 12.2352941,3.875 C12.2352941,3.67195 12.3163529,3.47045 12.4601176,3.32785 C12.6023529,3.1837 12.7996471,3.1 13,3.1 C13.2003529,3.1 13.3991765,3.18215 13.5398824,3.32785 C13.6821176,3.472 13.7647059,3.67195 13.7647059,3.875 C13.7647059,4.07805 13.6836471,4.278 13.5398824,4.42215 C13.3976471,4.5663 13.2003529,4.65 13,4.65 L13,4.65 Z" id="Shape"></path>
                <path d="M10.7058824,21.7 C10.5101176,21.7 10.3143529,21.62405 10.1644706,21.4737 L7.87035294,19.1487 C7.57211765,18.84645 7.57211765,18.3551 7.87035294,18.05285 C8.16858824,17.7506 8.65341176,17.7506 8.95164706,18.05285 L10.7043529,19.82915 L17.0452941,13.40285 C17.3435294,13.1006 17.8283529,13.1006 18.1265882,13.40285 C18.4248235,13.7051 18.4248235,14.19645 18.1265882,14.4987 L11.2442353,21.4737 C11.0943529,21.6256 10.8985882,21.7 10.7028235,21.7 L10.7058824,21.7 L10.7058824,21.7 Z" id="Shape"></path>
            </g>
        </g>
    </g>
</svg>