<?xml version="1.0" encoding="UTF-8"?>
<svg width="31px" height="16px" viewBox="0 0 31 16" version="1.1" xmlns="http://www.w3.org/2000/svg" xmlns:xlink="http://www.w3.org/1999/xlink">
    <!-- Generator: Sketch 50.2 (55047) - http://www.bohemiancoding.com/sketch -->
    <title>Shape Copy 25</title>
    <desc>Created with Sketch.</desc>
    <defs></defs>
    <g id="Page-1" stroke="none" stroke-width="1" fill="none" fill-rule="evenodd">
        <g id="BP-mobile" transform="translate(-26.000000, -279.000000)" fill="#1779ba">
            <path d="M50.1503492,294.575244 L46.3641296,294.575244 C45.9417625,294.575244 45.6099026,294.289698 45.6099026,293.926276 C45.6099026,293.562853 45.9417625,293.277307 46.3641296,293.277307 L50.1503492,293.277307 C52.6392984,293.277307 54.6606268,291.538072 54.6606268,289.383496 C54.6606268,287.228921 52.6392984,285.502665 50.1503492,285.502665 C49.6223903,285.502665 49.0944314,285.580541 48.6117261,285.736293 C48.2798662,285.840128 47.9178373,285.736293 47.7217382,285.476706 C47.5256392,285.230098 47.5708928,284.892634 47.8122455,284.671985 C48.3402044,284.191748 48.6268107,283.555759 48.6268107,282.893811 C48.6268107,281.46608 47.269202,280.297937 45.6099026,280.297937 C44.644492,280.297937 43.7545041,280.687318 43.1812916,281.349266 C42.8343471,281.751627 42.6382481,282.231863 42.5929945,282.725079 C42.5779099,282.997646 42.3516418,283.231275 42.049951,283.309151 C41.7482602,283.387027 41.4164003,283.283192 41.2203013,283.049564 L41.2203013,283.036584 C41.0543714,282.841894 40.8733569,282.647203 40.6923424,282.465492 C39.259311,281.089679 37.2078135,280.297937 35.0507243,280.297937 C30.8873911,280.297937 27.508454,283.205316 27.508454,286.787622 C27.508454,290.369928 30.8873911,293.277307 35.0507243,293.277307 L37.3134053,293.277307 C37.7357725,293.277307 38.0676324,293.562853 38.0676324,293.926276 C38.0676324,294.289698 37.7357725,294.575244 37.3134053,294.575244 L35.0507243,294.575244 C30.0577414,294.575244 26,291.083794 26,286.787622 C26,282.491451 30.0577414,279 35.0507243,279 C37.4642507,279 39.78727,279.83068 41.4767385,281.310328 C41.6124994,281.050741 41.7784293,280.817112 41.9594438,280.596463 C42.8192626,279.597051 44.1768712,279 45.6099026,279 C48.0988517,279 50.1352647,280.752215 50.1352647,282.893811 C50.1352647,283.348089 50.0447575,283.789388 49.863743,284.217707 L50.1352647,284.217707 C53.4538636,284.217707 56.1539963,286.541014 56.1539963,289.396476 C56.1539963,292.251937 53.4689481,294.575244 50.1503492,294.575244 L50.1503492,294.575244 L50.1503492,294.575244 Z" id="Shape-Copy-25"></path>
            <path d="M45.3836345,289.565207 L42.3667264,286.969333 C42.0801201,286.722725 41.5974148,286.722725 41.295724,286.969333 L38.2788159,289.565207 C37.9771251,289.811815 37.9771251,290.227155 38.2788159,290.486743 C38.5654222,290.733351 39.0481275,290.733351 39.3498183,290.486743 L41.0845404,289.007095 L41.0845404,295.224213 C41.0845404,295.587635 41.4164003,295.873181 41.8387675,295.873181 C42.2611346,295.873181 42.5929945,295.587635 42.5929945,295.224213 L42.5929945,289.007095 L44.3277166,290.499722 C44.4634775,290.616536 44.6595765,290.681433 44.8556755,290.681433 C45.0517746,290.681433 45.2478736,290.616536 45.3836345,290.486743 C45.6853253,290.240135 45.6853253,289.824795 45.3836345,289.565207 L45.3836345,289.565207 Z" id="Shape-Copy-24"></path>
        </g>
    </g>
</svg>