<svg id="Glyphs" xmlns="http://www.w3.org/2000/svg" viewBox="0 0 284 194"><defs><style>.cls-1{fill:#2080cd;}.cls-2{fill:none;}.cls-2,.cls-3{stroke:#2080cd;stroke-miterlimit:10;stroke-width:4px;}.cls-3{fill:#fff;}</style></defs><title>CDL-7793_</title><path class="cls-1" d="M178.31,58.13l-73.88,76.63A10.48,10.48,0,0,0,112,138h60a10.52,10.52,0,0,0,10.52-10.52v-61C182.5,62.62,181,60.55,178.31,58.13Z"/><rect class="cls-2" x="101.5" y="56" width="81" height="82" rx="10.52" ry="10.52"/><rect class="cls-3" x="112.5" y="67" width="59" height="60" rx="7.7" ry="7.7"/><path class="cls-1" d="M143.5,93.27V86.53A8.21,8.21,0,0,1,148.07,89l.87.76L152.13,86l-.85-.57a13.25,13.25,0,0,0-7.77-3.76V79h-3v2.65c-5,.66-8.07,3.87-8.07,8,0,5.33,5.07,6.92,8.07,7.89v7.75a9.75,9.75,0,0,1-5.6-3.19l-.82-.83L131,105.2l.68.55c2.12,2.41,5.86,3.93,8.86,4.32V115h3v-4.94c6-.75,8.3-4.78,8.3-8.41C151.8,96,146.5,94.24,143.5,93.27Zm3.17,8.62c0,.67-.17,2.75-3.17,3.44V98.71C145.5,99.55,146.67,100.46,146.67,101.89Zm-9.11-12.43c0-1.5.94-2.66,2.94-3.07V92.1C138.5,91.36,137.56,90.6,137.56,89.46Z"/></svg>