<svg id="Glyphs" xmlns="http://www.w3.org/2000/svg" viewBox="0 0 284 194"><defs><style>.cls-1,.cls-5{fill:#fff;}.cls-1,.cls-3,.cls-4{stroke:#2080cd;stroke-miterlimit:10;}.cls-1{stroke-width:5px;}.cls-2{fill:#2080cd;}.cls-3,.cls-4{fill:none;}.cls-3{stroke-linecap:round;stroke-width:3px;}.cls-4{stroke-width:4px;}</style></defs><title>CDL-7793_</title><rect class="cls-1" x="104.36" y="53" width="61" height="87" rx="4" ry="4"/><circle class="cls-2" cx="135.09" cy="129.5" r="4.2"/><line class="cls-3" x1="127.86" y1="60" x2="140.86" y2="60"/><rect class="cls-4" x="113.86" y="66.5" width="42" height="54" rx="2.65" ry="2.65"/><circle class="cls-5" cx="175.95" cy="93.5" r="29.19"/><line class="cls-4" x1="135.96" y1="106.61" x2="152.95" y2="96.76"/><polygon class="cls-2" points="141.23 111.62 127.27 111.65 134.23 99.55 141.23 111.62"/><circle class="cls-5" cx="176.09" cy="93.5" r="21.04"/><path class="cls-2" d="M187.48,77.53c7.38,4.92,8.36,13.39,8.36,16a19.75,19.75,0,1,1-8.36-16l3.85-3.93a24.95,24.95,0,1,0,10,19.9A24.7,24.7,0,0,0,198.5,82s-3.36-6.36-7.17-8.43"/><path class="cls-2" d="M177.86,91.18v-6.1a6.5,6.5,0,0,1,4,2.28l.72.69,2.85-3.42-.66-.51a10.94,10.94,0,0,0-6.92-3.4V77.5h-3v3.17c-4,.6-7.29,3.5-7.29,7.24,0,4.82,4.29,6.26,7.29,7.13v7a7.8,7.8,0,0,1-5-2.89l-.73-.75L166.27,102l.6.5a12.86,12.86,0,0,0,8,3.91v3.13h3v-3.14c5-.68,7.51-4.32,7.51-7.6C185.37,93.63,180.86,92.06,177.86,91.18Zm2.87,7.8c0,.61.13,2.49-2.87,3.11v-6C179.86,96.85,180.73,97.68,180.73,99Zm-8.53-11.24c0-1.36.66-2.41,2.66-2.77v5.16C172.86,89.45,172.21,88.76,172.21,87.73Z"/></svg>