<svg id="Glyphs" xmlns="http://www.w3.org/2000/svg" viewBox="0 0 284 194"><defs><style>.cls-1{fill:#2080cd;}.cls-2,.cls-3{fill:#fff;}.cls-2{stroke:#fff;stroke-width:12px;}.cls-3{stroke:#2080cd;stroke-width:4px;}</style></defs><title>CDL-7793_</title><path class="cls-1" d="M171.83,92.32l5.24,3.58a2.75,2.75,0,0,0,3.81-.7l6.22-9a2.7,2.7,0,0,0-.7-3.78L141.08,51.53a8.42,8.42,0,0,0-9.33,0L86.43,82.46a2.7,2.7,0,0,0-.7,3.78l6.22,9a2.75,2.75,0,0,0,3.81.7L101,92.32l1.44-1v38H94.66a2.82,2.82,0,0,0-2.82,2.8v2.91H181v-2.91a2.82,2.82,0,0,0-2.82-2.8h-7.79v-38ZM138,62.61a2.76,2.76,0,0,0-3.11,0L106.12,82.22,94.91,89.88l-2.07-3-1-1.49L134.86,56A2.8,2.8,0,0,1,138,56L181,85.4l-1,1.49-2.07,3-11.21-7.65Zm6.18,66.73H128.69V97.57h15.46Zm5.48,0V102.16h0v-7.3a2.79,2.79,0,0,0-2.74-2.72H125.94a2.79,2.79,0,0,0-2.74,2.72v7.3h0v27.17H107.93V93.9h0V87.59l28.49-19.45,28.49,19.45V93.9h0v35.44Z"/><rect class="cls-2" x="134.74" y="117.36" width="64.01" height="26.53" rx="13.26" ry="13.26"/><rect class="cls-3" x="134.74" y="117.36" width="64.01" height="26.53" rx="13.26" ry="13.26"/><path class="cls-1" d="M150.52,123.13h7c2.54,0,3.84,1.62,3.84,3.4a3,3,0,0,1-2.3,3.06,3.23,3.23,0,0,1,2.56,3.28c0,2-1.34,3.6-3.88,3.6h-7.24Zm6.4,5.36a1.47,1.47,0,1,0,0-2.94h-3.56v2.94ZM157,134a1.53,1.53,0,0,0,1.72-1.58,1.56,1.56,0,0,0-1.72-1.56h-3.66V134Z"/><path class="cls-1" d="M170.24,135.25a4.52,4.52,0,0,1-3.4,1.46,2.77,2.77,0,0,1-3.12-3v-6.86h2.54v5.86a1.55,1.55,0,0,0,1.78,1.78,2.84,2.84,0,0,0,2.2-1.1v-6.54h2.54v9.66h-2.54Z"/><path class="cls-1" d="M176.14,138.13a1.28,1.28,0,0,0,1.34-.7l.36-.82-3.92-9.8h2.72l2.52,6.72,2.52-6.72h2.74L179.88,138a3.51,3.51,0,0,1-3.66,2.34,6.93,6.93,0,0,1-1.26-.14l.38-2.28A2.2,2.2,0,0,0,176.14,138.13Z"/></svg>