<?xml version="1.0" encoding="utf-8"?>
<!-- Generator: Adobe Illustrator 22.0.1, SVG Export Plug-In . SVG Version: 6.00 Build 0)  -->
<svg version="1.1" xmlns="http://www.w3.org/2000/svg" xmlns:xlink="http://www.w3.org/1999/xlink" x="0px" y="0px"
	 viewBox="0 0 284 194" style="enable-background:new 0 0 284 194;" xml:space="preserve">
<style type="text/css">
	.st0{fill:#2080CD;}
	.st1{display:none;}
</style>
<g id="Glyphs">
	<g>
		<path class="st0" d="M162.3,134.2c0-0.1-0.1-0.1-0.1-0.2l-18.7-28.6c-1.9-2.8-0.3-5.2,0.8-6.4c3.3-3.1,7.8-2.4,11-1.2
			c1,0.4,3.9,1.4,5-0.6c1.1-2-1.1-3.6-2-4.3c-5.9-4.5-15.3-7-23-2.3l-9.7,5.8c-1.1,0.8-1.7,2.2-1.4,3.6c0,0.4-0.3,0.8-0.8,0.8
			c-0.1,0-0.2,0-0.4-0.1c-1.1-1-2.7-1.1-4-0.4l-4.1,2.5c-2,1.2-2.6,3.8-1.4,5.8l3.3,5.5c1.2,2,3.8,2.6,5.8,1.4l4.2-2.5
			c1.2-0.8,1.7-2.3,1.4-3.6c-0.1-0.3,0.1-0.5,0.3-0.6l0.1-0.1c0.4-0.2,0.8-0.3,1.2-0.2c1,0.3,2.2,1.5,3.1,3.2l16.6,29.8
			c0.6,1.1,1.6,1.9,2.8,2.2h0.2c0.3,0.1,0.7,0.1,1,0.1c0.8,0,1.7-0.2,2.4-0.7l4.7-2.8C162.8,139.1,163.5,136.3,162.3,134.2
			L162.3,134.2z M127.8,102c0.5-0.8,0.6-1.8,0.4-2.7l9.3-5.5c4.1-2.5,8.9-2.4,13.1-0.9c-3.3-0.1-6.4,1-8.8,3.3
			c-2.8,2.5-3.7,6.5-2.2,10l-3.8,2.3c-1.1-1.7-2.8-3-4.7-3.7c-1.4-0.4-2.9-0.2-4.2,0.6c-1.7,0.9-2.6,2.7-2.3,4.6l-3.8,2.3
			c-0.2,0.1-0.4,0-0.5-0.1l-3.4-5.7c0-0.1,0-0.2,0-0.2c0-0.1,0.1-0.2,0.2-0.2l3.8-2.3c1.5,1.1,3.6,1.2,5.2,0.1
			c0.3-0.2,0.5-0.3,0.8-0.5C127.2,103,127.6,102.6,127.8,102z M141.5,109.5l17.4,26.7c0.2,0.3,0.2,0.7-0.1,0.9l0,0l-0.1,0.1L154,140
			c-0.1,0.1-0.3,0.1-0.5,0.1c-0.2-0.1-0.3-0.2-0.4-0.4l-15.4-27.9L141.5,109.5z"/>
		<path class="st0" d="M173.6,92.5l5.2,3.6c1.2,0.9,3,0.5,3.8-0.7l6.2-9c0.4-0.6,0.6-1.3,0.4-2c-0.1-0.7-0.5-1.3-1.1-1.7l-45.3-31
			c-2.8-1.9-6.5-1.9-9.3,0l-45.3,31c-1.2,0.8-1.5,2.5-0.7,3.7l0,0l6.2,9c0.9,1.2,2.6,1.6,3.8,0.7l5.2-3.6l1.4-1v38h-7.8
			c-1.6,0-2.8,1.2-2.8,2.8v2.9h44l-3.8-5.7h-24V94.1l0,0v-6.3l28.5-19.4l28.5,19.4v6.3l0,0v35.4l0,0v5.7h16.1v-2.9
			c0-1.6-1.3-2.8-2.8-2.8h-7.8v-38L173.6,92.5z M168.5,82.4l-28.8-19.6c-0.9-0.6-2.2-0.6-3.1,0l-28.7,19.6l-11.2,7.7l-2.1-3l-1-1.5
			l43.1-29.4c0.9-0.6,2.2-0.6,3.1,0l43.1,29.4l-1,1.5l-2.1,3L168.5,82.4z"/>
	</g>
</g>
<g id="Containers" class="st1">
</g>
</svg>
