<svg id="c8d49339-17f1-48c5-8e7f-de49062f9ac0" data-name="Glyphs" xmlns="http://www.w3.org/2000/svg" viewBox="0 0 284 194"><defs><style>.\37 8dc7d22-abd3-4445-9154-4ac37c74ed8b{fill:#2080cd;}.\37 66e0d5b-83ec-4ba5-a655-499a53d53616,.\39 c8a3170-436b-4405-a5a5-d36e3ec18825{fill:#fff;}.\39 c8a3170-436b-4405-a5a5-d36e3ec18825{stroke:#fff;stroke-width:12px;}.\37 66e0d5b-83ec-4ba5-a655-499a53d53616{stroke:#2080cd;stroke-width:4px;}</style></defs><title>HELOC</title><path class="78dc7d22-abd3-4445-9154-4ac37c74ed8b" d="M171.83,92.32l5.24,3.58a2.76,2.76,0,0,0,3.82-.7l6.21-9a2.66,2.66,0,0,0,.44-2,2.71,2.71,0,0,0-1.14-1.75L141.08,51.53a8.42,8.42,0,0,0-9.33,0L86.43,82.46a2.75,2.75,0,0,0-1.14,1.75,2.7,2.7,0,0,0,.44,2l6.22,9a2.75,2.75,0,0,0,3.81.7L101,92.32l1.45-1v38H94.66a2.83,2.83,0,0,0-2.83,2.81v2.91H181v-2.91a2.83,2.83,0,0,0-2.82-2.81h-7.79v-38ZM138,62.61a2.76,2.76,0,0,0-3.11,0L106.12,82.22,94.91,89.88l-2.07-3-1-1.49L134.86,56a2.84,2.84,0,0,1,1.56-.46A2.81,2.81,0,0,1,138,56L181,85.4l-1,1.49-2.07,3-11.22-7.66Zm6.18,66.73H128.69V97.57h15.46Zm5.48,0V102.16h0v-7.3a2.71,2.71,0,0,0-2-2.6,2.76,2.76,0,0,0-.77-.12H125.94a2.82,2.82,0,0,0-.77.12,2.72,2.72,0,0,0-2,2.6v7.3h0v27.18H107.93V93.9h0V87.59l28.49-19.44,28.49,19.44V93.9h0v35.44Z"/><path class="9c8a3170-436b-4405-a5a5-d36e3ec18825" d="M199.49,143.88H148a13.3,13.3,0,0,1-13.26-13.26h0A13.3,13.3,0,0,1,148,117.36h51.49c7.3,0,16.26,6,16.26,13.26h0C215.75,137.91,206.79,143.88,199.49,143.88Z"/><path class="766e0d5b-83ec-4ba5-a655-499a53d53616" d="M202.49,143.88H148a13.3,13.3,0,0,1-13.26-13.26h0A13.3,13.3,0,0,1,148,117.36h54.49a13.29,13.29,0,0,1,13.26,13.26h0A13.3,13.3,0,0,1,202.49,143.88Z"/><path class="78dc7d22-abd3-4445-9154-4ac37c74ed8b" d="M153.09,131.53h-6.3v5.6H144V123.79h2.84V129h6.3v-5.24H156v13.34h-2.86Z"/><path class="78dc7d22-abd3-4445-9154-4ac37c74ed8b" d="M158.57,123.79H168v2.44h-6.6v2.9h6.46v2.44h-6.46v3.1H168v2.46h-9.44Z"/><path class="78dc7d22-abd3-4445-9154-4ac37c74ed8b" d="M170.23,123.79h2.84v10.84h5.64v2.5h-8.48Z"/><path class="78dc7d22-abd3-4445-9154-4ac37c74ed8b" d="M186.47,123.57a6.91,6.91,0,1,1-7,6.9A6.7,6.7,0,0,1,186.47,123.57Zm0,2.52c-2.46,0-4,1.88-4,4.38s1.58,4.38,4,4.38a4.39,4.39,0,0,0,0-8.76Z"/><path class="78dc7d22-abd3-4445-9154-4ac37c74ed8b" d="M194.81,130.47a6.75,6.75,0,0,1,7-6.9,6.16,6.16,0,0,1,5.68,3.26l-2.44,1.2a3.65,3.65,0,0,0-3.24-1.94,4.39,4.39,0,0,0,0,8.76,3.62,3.62,0,0,0,3.24-1.94l2.44,1.18a6.2,6.2,0,0,1-5.68,3.29A6.76,6.76,0,0,1,194.81,130.47Z"/></svg>