<?xml version="1.0" encoding="iso-8859-1"?>
<!-- Generator: Adobe Illustrator 19.0.0, SVG Export Plug-In . SVG Version: 6.00 Build 0)  -->
<svg version="1.1" id="Layer_1" xmlns="http://www.w3.org/2000/svg" xmlns:xlink="http://www.w3.org/1999/xlink" x="0px" y="0px"
	 viewBox="0 0 512 512" style="enable-background:new 0 0 512 512;" xml:space="preserve">
<path style="fill:#CEE8FA;" d="M307.472,227.964c-30.728,0-44.514,17.222-49.939,27.339c-0.681,1.27-2.53,1.269-3.21-0.003
	c-5.406-10.117-19.116-27.336-49.843-27.336c-35.002,0-65.792,23.893-65.792,67.524c0,17.655,3.598,32.78,13.584,49.661
	c20.349,34.399,87.389,78.993,101.161,87.779c1.523,0.972,3.451,0.973,4.975,0.006c13.782-8.745,80.834-53.118,101.344-87.787
	c9.986-16.88,13.559-32.006,13.559-49.661C373.313,251.859,342.472,227.964,307.472,227.964z"/>
<g>
	<path style="fill:#2D527C;" d="M255.928,448.43L255.928,448.43c-3.705,0-7.313-1.055-10.441-3.05
		c-8.396-5.358-82.723-53.487-105.926-92.71c-10.817-18.286-15.642-35.922-15.642-57.181c0-24.709,8.433-45.751,24.388-60.852
		c14.609-13.828,34.56-21.444,56.174-21.444c25.266,0,41.516,9.909,51.46,19.849c9.961-9.938,26.236-19.849,51.531-19.849
		c21.617,0,41.575,7.613,56.194,21.44c15.974,15.106,24.418,36.149,24.418,60.856c0,21.289-4.817,38.923-15.617,57.181
		c-23.369,39.502-97.738,87.406-106.142,92.738C263.206,447.386,259.612,448.43,255.928,448.43z M204.481,242.736
		c-25.394,0-51.018,16.311-51.018,52.753c0,16.092,3.34,28.301,11.525,42.139c15.007,25.364,63.239,61.063,90.955,79.32
		c27.721-18.168,75.983-53.769,91.098-79.321c8.167-13.809,11.5-26.017,11.5-42.139c0-36.44-25.65-52.753-51.069-52.753
		c-21.852,0-32.139,10.63-36.919,19.547c-2.898,5.396-8.5,8.743-14.622,8.743c-6.138,0-11.745-3.358-14.634-8.764
		C236.536,253.356,226.283,242.736,204.481,242.736z"/>
	<path style="fill:#2D527C;" d="M325.712,512H110.539c-28.484,0-51.66-23.174-51.66-51.66V225.285
		c0-17.428,8.743-33.474,23.387-42.922l132.998-85.806c24.746-15.967,56.726-15.967,81.472,0l132.997,85.806
		c14.645,9.448,23.388,25.493,23.388,42.922v256.394c0,8.158-6.615,14.772-14.772,14.772s-14.772-6.613-14.772-14.772V225.285
		c0-7.347-3.686-14.113-9.862-18.097l-132.994-85.806c-15.018-9.689-34.424-9.69-49.442,0L98.283,207.188
		c-6.175,3.984-9.86,10.749-9.86,18.097v235.056c0,12.196,9.921,22.116,22.116,22.116h215.173c8.157,0,14.772,6.613,14.772,14.772
		S333.869,512,325.712,512z"/>
	<path style="fill:#2D527C;" d="M486.919,172.984c-2.844,0-5.715-0.818-8.25-2.529L281.505,37.411
		c-15.493-10.455-35.516-10.455-51.008,0L33.333,170.455c-6.76,4.563-15.943,2.782-20.508-3.981s-2.782-15.945,3.981-20.508
		L213.97,12.921c25.533-17.228,58.527-17.228,84.06,0l197.164,133.044c6.762,4.563,8.545,13.745,3.981,20.508
		C496.322,170.702,491.663,172.984,486.919,172.984z"/>
</g>
<g>
</g>
<g>
</g>
<g>
</g>
<g>
</g>
<g>
</g>
<g>
</g>
<g>
</g>
<g>
</g>
<g>
</g>
<g>
</g>
<g>
</g>
<g>
</g>
<g>
</g>
<g>
</g>
<g>
</g>
</svg>
