<svg id="Glyphs" xmlns="http://www.w3.org/2000/svg" viewBox="0 0 284 194"><defs><style>.cls-1{fill:#2080cd;}.cls-2,.cls-3{fill:#fff;}.cls-2{stroke:#fff;stroke-width:12px;}.cls-3{stroke:#2080cd;stroke-width:4px;}</style></defs><title>CDL-7793_</title><path class="cls-1" d="M171.83,92.32l5.24,3.58a2.75,2.75,0,0,0,3.81-.7l6.22-9a2.7,2.7,0,0,0-.7-3.78L141.08,51.53a8.42,8.42,0,0,0-9.33,0L86.43,82.46a2.7,2.7,0,0,0-.7,3.78l6.22,9a2.75,2.75,0,0,0,3.81.7L101,92.32l1.44-1v38H94.66a2.82,2.82,0,0,0-2.82,2.8v2.91H181v-2.91a2.82,2.82,0,0,0-2.82-2.8h-7.79v-38ZM138,62.61a2.76,2.76,0,0,0-3.11,0L106.12,82.22,94.91,89.88l-2.07-3-1-1.49L134.86,56A2.8,2.8,0,0,1,138,56L181,85.4l-1,1.49-2.07,3-11.21-7.65Zm6.18,66.73H128.69V97.57h15.46Zm5.48,0V102.16h0v-7.3a2.79,2.79,0,0,0-2.74-2.72H125.94a2.79,2.79,0,0,0-2.74,2.72v7.3h0v27.17H107.93V93.9h0V87.59l28.49-19.45,28.49,19.45V93.9h0v35.44Z"/><rect class="cls-2" x="134.74" y="117.36" width="64.01" height="26.53" rx="13.26" ry="13.26"/><rect class="cls-3" x="134.74" y="117.36" width="64.01" height="26.53" rx="13.26" ry="13.26"/><path class="cls-1" d="M153.26,123a6.9,6.9,0,1,1-7,6.9A6.7,6.7,0,0,1,153.26,123Zm0,2.52c-2.46,0-4,1.88-4,4.38s1.58,4.38,4,4.38a4.39,4.39,0,0,0,0-8.76Z"/><path class="cls-1" d="M168.62,129.94l-2,6.58h-2.72l-2.94-9.66h2.64l1.8,6.5,2.12-6.5h2.26l2.12,6.5,1.8-6.5h2.64l-2.94,9.66h-2.7Z"/><path class="cls-1" d="M184.08,130.68a1.57,1.57,0,0,0-1.78-1.8,2.75,2.75,0,0,0-2.2,1.14v6.5h-2.54v-9.66h2.54v1.26a4.42,4.42,0,0,1,3.38-1.5,2.81,2.81,0,0,1,3.14,3.08v6.82h-2.54Z"/></svg>