<svg id="Glyphs" xmlns="http://www.w3.org/2000/svg" viewBox="0 0 284 194"><defs><style>.cls-1,.cls-3{fill:#fff;}.cls-1{stroke:#2080cd;stroke-width:5px;}.cls-2{fill:#2080cd;}</style></defs><title>CDL-7793_</title><path class="cls-1" d="M131.55,141.25V51.75c0-1.1,2.15-1,3.26-1h15c1.1,0,.74-.1.74,1v89.5"/><path class="cls-2" d="M164,138.25H118.67c-1.55,0-3.62,1-3.62,2.51v2.49h51v-2.49C166,139.22,165.57,138.25,164,138.25Z"/><path class="cls-3" d="M98.41,87.25c-2.23,0-4.36-2.67-4.36-4.9V66.15c0-2.23,2.13-4.9,4.36-4.9h80.15a6.47,6.47,0,0,1,4.68,2.14L188.69,70a6.26,6.26,0,0,1,.12,6.59l-5.58,7.88c-1,1.36-3,2.76-4.68,2.76Z"/><path class="cls-2" d="M178.3,63.3a4.64,4.64,0,0,1,3.07,1.42l5.51,6.68a4.27,4.27,0,0,1,.09,3.84l-5.56,7.52a4.08,4.08,0,0,1-2.86,1.5H98.41c-1,0-2.36-.91-2.36-1.9V66.15c0-1,1.37-2.9,2.36-2.9H178m.51-4H98.41c-3.47,0-6.36,3.43-6.36,6.9v16.2c0,3.47,2.89,5.9,6.36,5.9h80.15a8.28,8.28,0,0,0,6.48-3l5.57-7.37a8.36,8.36,0,0,0-.18-9.33L185,62.07a8.52,8.52,0,0,0-6.42-2.82Z"/><path class="cls-2" d="M106.14,78.89h-2.33V67.22h4.79a3.72,3.72,0,1,1,0,7.43h-2.46Zm0-6.43h2.3a1.54,1.54,0,1,0,0-3.07h-2.3Z"/><path class="cls-2" d="M116.48,78.89h-2.2V70.16h2.2v.54a3.46,3.46,0,0,1,2.08-.72h.5v2.29l-.55-.06a3.53,3.53,0,0,0-.41,0,2.39,2.39,0,0,0-1.61.88Z"/><path class="cls-2" d="M124.55,79.08a4.56,4.56,0,1,1,4.33-4.57A4.3,4.3,0,0,1,124.55,79.08Zm0-7a2.22,2.22,0,0,0-2.06,2.48c0,1.24.64,2.49,2.06,2.49s2.06-1.25,2.06-2.49A2.22,2.22,0,0,0,124.55,72Z"/><path class="cls-2" d="M133.15,81.84h-2.2V70.16h2.2v.47a3.71,3.71,0,0,1,2.11-.66c2.36,0,3.94,1.83,3.94,4.55s-1.58,4.57-3.94,4.57a3.6,3.6,0,0,1-2.11-.68Zm0-5.73A2.4,2.4,0,0,0,135,77c1.46,0,2-1.34,2-2.49,0-1.5-.78-2.48-2-2.48a2.39,2.39,0,0,0-1.81.89Z"/><path class="cls-2" d="M145.23,79.08a4.32,4.32,0,0,1-4.45-4.57A4.39,4.39,0,0,1,145.08,70c2.48,0,4.21,1.91,4.21,4.65v.8h-6.16a2.16,2.16,0,0,0,2.18,1.67,2.86,2.86,0,0,0,2-.84l.41-.42L149,77.44l-.31.3A4.78,4.78,0,0,1,145.23,79.08Zm-2.1-5.56H147a1.93,1.93,0,0,0-2-1.56A2,2,0,0,0,143.13,73.52Z"/><path class="cls-2" d="M153.55,78.89h-2.2V70.16h2.2v.54a3.46,3.46,0,0,1,2.08-.72h.5v2.29l-.55-.06a3.53,3.53,0,0,0-.41,0,2.39,2.39,0,0,0-1.61.88Z"/><path class="cls-2" d="M161.82,79.08a2.09,2.09,0,0,1-2.23-2.31V72.22h-1.28V70.16h1.28V68h2.22v2.11h1.57v2.06h-1.57v4.3c0,.33.09.49.27.49a.65.65,0,0,0,.45-.17l.54-.6.76,2-.24.23A2.45,2.45,0,0,1,161.82,79.08Z"/><path class="cls-2" d="M167.72,82h0a4.13,4.13,0,0,1-1-.13l-.42-.13.35-2.17.6.27a1.36,1.36,0,0,0,.45.08c.32,0,.5-.05.69-.51l.43-1-3.44-8.31h2.4L170,75.67l2.24-5.51h2.38l-4.16,10A2.8,2.8,0,0,1,167.73,82Z"/><path class="cls-3" d="M109,120.11c-2.23-.08-4.27-2.82-4.19-5l.57-16.19c.08-2.23,2.3-4.82,4.53-4.75l58.11,2a6.47,6.47,0,0,1,4.6,2.31l5.21,6.81a6.26,6.26,0,0,1-.11,6.59l-5.85,7.68c-1.06,1.32-3.08,2.66-4.77,2.6Z"/><path class="cls-2" d="M167.65,99.19a4.65,4.65,0,0,1,3,1.52l5.28,6.86a4.27,4.27,0,0,1,0,3.84l-5.82,7.32a4.08,4.08,0,0,1-2.91,1.39l-58.11-2c-1,0-2.33-1-2.29-2l.57-16.19c0-1,1.47-2.85,2.46-2.82l57.6,2m.65-4-58.11-2c-3.47-.12-6.48,3.2-6.6,6.67L102.77,116c-.12,3.47,2.68,6,6.15,6.12l58.11,2a8.28,8.28,0,0,0,6.59-2.82l5.83-7.17a8.35,8.35,0,0,0,.14-9.33l-5.22-6.63a8.52,8.52,0,0,0-6.32-3Z"/><path class="cls-2" d="M125.4,113.32l-2.33-.08.33-9.49-3.37-.12.08-2.18,9.09.32-.08,2.18-3.39-.12Z"/><path class="cls-2" d="M131.68,116.68h0a4.17,4.17,0,0,1-1-.17l-.41-.14.43-2.15.59.29a1.35,1.35,0,0,0,.45.1c.32,0,.5,0,.71-.49l.46-1-3.15-8.42,2.4.08,2,5.58L136.6,105l2.38.08-4.51,9.84a2.8,2.8,0,0,1-2.79,1.78Z"/><path class="cls-2" d="M142.37,116.86l-2.2-.08.41-11.67,2.2.08,0,.47a3.71,3.71,0,0,1,2.13-.59c2.36.08,3.88,2,3.78,4.68s-1.74,4.51-4.1,4.43a3.59,3.59,0,0,1-2.08-.75Zm.2-5.73a2.4,2.4,0,0,0,1.77,1c1.46.05,2-1.27,2.07-2.42.05-1.5-.69-2.5-1.89-2.54a2.4,2.4,0,0,0-1.84.82Z"/><path class="cls-2" d="M154.63,114.53a4.32,4.32,0,0,1-4.29-4.72,4.39,4.39,0,0,1,4.47-4.4c2.48.09,4.14,2.06,4,4.79l0,.8-6.15-.21a2.16,2.16,0,0,0,2.12,1.75,2.86,2.86,0,0,0,2.07-.77l.43-.41,1.13,1.65-.32.29A4.78,4.78,0,0,1,154.63,114.53Zm-1.9-5.63,3.91.14a1.93,1.93,0,0,0-1.92-1.63A2,2,0,0,0,152.73,108.9Z"/></svg>