<?xml version="1.0" encoding="utf-8"?>
<!-- Generator: Adobe Illustrator 21.1.0, SVG Export Plug-In . SVG Version: 6.00 Build 0)  -->
<svg version="1.1" id="Layer_1" xmlns="http://www.w3.org/2000/svg" xmlns:xlink="http://www.w3.org/1999/xlink" x="0px" y="0px"
	 viewBox="0 0 284 194" style="enable-background:new 0 0 284 194;" xml:space="preserve">
<style type="text/css">
	.st0{fill:#2080CD;}
	.st1{fill:#FFFFFF;}
	.st2{fill:none;stroke:#2080CD;stroke-width:4;stroke-miterlimit:10;}
</style>
<title>CDL-7793_Icon_v3</title>
<g id="Glyphs">
	<path class="st0" d="M171.8,92.3l5.2,3.6c1.2,0.9,2.9,0.5,3.8-0.7l6.2-9c0.9-1.2,0.6-2.9-0.7-3.8c0,0,0,0,0,0l-45.3-30.9
		c-2.8-1.9-6.5-1.9-9.3,0L86.4,82.5c-1.2,0.8-1.6,2.5-0.7,3.7c0,0,0,0,0,0l6.2,9c0.9,1.2,2.6,1.5,3.8,0.7l5.2-3.6l1.4-1v38h-7.8
		c-1.5,0-2.8,1.3-2.8,2.8v2.9H181v-2.9c0-1.5-1.3-2.8-2.8-2.8h-7.8v-38L171.8,92.3z M138,62.6c-0.9-0.6-2.2-0.6-3.1,0l-28.8,19.6
		l-11.2,7.7l-2.1-3l-1-1.5l43-29.4c0.9-0.6,2.2-0.6,3.1,0l43,29.4l-1,1.5l-2.1,3l-11.2-7.7L138,62.6z M144.2,129.3h-15.5V97.6h15.5
		L144.2,129.3z M149.7,129.3v-27.2l0,0v-7.3c0-1.5-1.2-2.7-2.7-2.7h-21c-1.5,0-2.7,1.2-2.7,2.7v7.3l0,0v27.2h-15.3V93.9l0,0v-6.3
		l28.5-19.4l28.5,19.4v6.3l0,0v35.4H149.7z"/>
	<circle class="st1" cx="136.5" cy="107.3" r="29.2"/>
	<circle class="st1" cx="136.4" cy="107.7" r="21"/>
	<path class="st0" d="M147.8,91.8c7.4,4.9,8.4,13.4,8.4,16c0.1,10.9-8.7,19.8-19.6,19.9c-10.9,0.1-19.8-8.7-19.9-19.6
		s8.7-19.8,19.6-19.9C140.4,88.1,144.4,89.4,147.8,91.8l3.9-3.9c-11-8.3-26.7-6-34.9,5s-6,26.7,5,34.9s26.7,6,34.9-5
		c3.2-4.3,5-9.6,5-15c0-4-1-7.9-2.8-11.5c0,0-3.4-6.4-7.2-8.4"/>
	<path class="st0" d="M138.2,105.4v-6.1c1.6,0.2,3,1.1,4,2.3l0.7,0.7l2.9-3.4l-0.7-0.5c-1.8-1.9-4.3-3.1-6.9-3.4v-3.2h-3v3.2
		c-4,0.6-7.3,3.5-7.3,7.2c0,4.8,4.3,6.3,7.3,7.1v7c-2-0.3-3.8-1.3-5-2.9l-0.7-0.8l-2.8,3.6l0.6,0.5c2.1,2.2,5,3.6,8,3.9v3.1h3v-3.1
		c5-0.7,7.5-4.3,7.5-7.6C145.7,107.8,141.2,106.3,138.2,105.4z M141,113.2c0,0.6,0.1,2.5-2.9,3.1v-6
		C140.2,111.1,141,111.9,141,113.2L141,113.2z M132.5,102c0-1.4,0.7-2.4,2.7-2.8v5.2C133.2,103.7,132.5,103,132.5,102z"/>
	<polygon class="st1" points="164,99.5 172.3,99.5 172.3,115.2 163.5,115.2 	"/>
	<line class="st2" x1="177.2" y1="107.6" x2="161.1" y2="107.6"/>
	<polygon class="st0" points="175.2,100.6 187.3,107.6 175.2,114.6 	"/>
</g>
</svg>
