<?xml version="1.0" encoding="utf-8"?>
<!-- Generator: Adobe Illustrator 21.1.0, SVG Export Plug-In . SVG Version: 6.00 Build 0)  -->
<svg version="1.1" id="Layer_1" xmlns="http://www.w3.org/2000/svg" xmlns:xlink="http://www.w3.org/1999/xlink" x="0px" y="0px"
	 viewBox="0 0 284 194" style="enable-background:new 0 0 284 194;" xml:space="preserve">
<style type="text/css">
	.st0{fill:#2080CD;}
	.st1{fill:#FFFFFF;}
</style>
<title>CDL-7793_Icon_v3</title>
<g id="Glyphs">
	<path class="st0" d="M181,135.1v-2.9c0-1.5-1.3-2.8-2.8-2.8h-7.8v-38l1.4,1l5.2,3.6c1.2,0.9,2.9,0.5,3.8-0.7l6.2-9
		c0.9-1.2,0.5-2.9-0.7-3.8c0,0,0,0,0,0l-45.3-30.9c-2.8-1.9-6.5-1.9-9.3,0L86.4,82.5c-1.2,0.8-1.6,2.5-0.7,3.7c0,0,0,0,0,0l6.2,9
		c0.9,1.2,2.6,1.5,3.8,0.7l5.2-3.6l1.4-1v38h-7.8c-1.5,0-2.8,1.3-2.8,2.8v2.9 M138,62.6c-0.9-0.6-2.2-0.6-3.1,0l-28.8,19.6
		l-11.2,7.7l-2.1-3l-1-1.5l43-29.4c0.9-0.6,2.2-0.6,3.1,0l43,29.4l-1,1.5l-2.1,3l-11.2-7.7L138,62.6z M108,129.3V93.9l0,0v-6.3
		l28.5-19.4L165,87.6v6.3l0,0v35.4"/>
	<path class="st1" d="M163.1,128.5l-19.3,19.3c-0.9,0.9-2,1.6-3.2,2.1v0.7l-3.4-0.1l-3.4,0.1V150c-1.2-0.5-2.3-1.2-3.2-2.1
		l-19.3-19.3l4.4-5.8h6.2V95.2h29.8v25.8h7.3L163.1,128.5z"/>
	<path class="st0" d="M137.1,147.1v-2.2V147.1c-1.6,0-3-0.6-4.1-1.8l-19.3-19.3c-0.8-0.8-1.3-1.8-1.6-2.9c-0.2-1,0-2.1,0.7-2.9
		c0.6-0.7,1.4-1,2.3-1h3.9V95.2c0-2.8,2.2-5,5-5h26.5c2.8,0,5,2.2,5,5v24.1h3.9c0.9,0,1.7,0.3,2.3,1c0.6,0.8,0.9,1.8,0.7,2.8
		c-0.2,1.1-0.8,2.2-1.6,3l-19.3,19.3C140.2,146.5,138.7,147.1,137.1,147.1z M116.4,123.2L116.4,123.2l19.3,19.3
		c0.7,0.7,1.9,0.8,2.6,0.1c0,0,0,0,0.1-0.1l19.3-19.3h-6.4V95.2c0-0.6-0.4-1-1-1h-26.5c-0.6,0-1,0.4-1,1V121c0,0,0,0.1,0,0.1v2.2
		L116.4,123.2z"/>
	<path class="st0" d="M137.6,147.6h-0.9l0,0c-1.5-0.1-3-0.8-4.1-1.9l-19.3-19.3c-0.9-0.9-1.5-2-1.7-3.2c-0.2-1.2,0-2.4,0.8-3.3
		c0.7-0.8,1.6-1.2,2.6-1.2h3.4V95.2c0-3,2.5-5.5,5.5-5.5h26.5c3,0,5.5,2.5,5.5,5.5v23.6h3.4c1,0,2,0.4,2.6,1.2
		c0.7,0.9,1,2.1,0.8,3.2c-0.2,1.2-0.9,2.4-1.7,3.3l-19.3,19.3C140.5,146.8,139.1,147.5,137.6,147.6L137.6,147.6z M114.9,119.7
		c-0.7,0-1.4,0.3-1.9,0.8c-0.5,0.7-0.7,1.6-0.6,2.5c0.2,1,0.7,1.9,1.4,2.7l19.3,19.3c0.9,0.9,2.1,1.4,3.3,1.6v-1.7h1v1.7
		c1.2-0.1,2.4-0.7,3.3-1.6l19.3-19.3c0.7-0.8,1.3-1.7,1.5-2.8c0.2-0.8-0.1-1.7-0.6-2.4c-0.5-0.5-1.2-0.8-1.9-0.8h-4.4V95.2
		c0-2.5-2-4.5-4.5-4.5h-26.5c-2.5,0-4.5,2-4.5,4.5v24.6L114.9,119.7z"/>
</g>
<g id="Containers">
	<path class="st0" d="M131.4,101c2.8-0.2,5.1,1.9,5.3,4.7c0,0.1,0,0.2,0,0.3c0,2.7-2.1,4.9-5.3,4.9c-2.7,0.4-5.3-1.5-5.7-4.2
		c-0.4-2.7,1.5-5.3,4.2-5.7C130.4,101,130.9,101,131.4,101L131.4,101z M142,101.3h2.9L132.3,121h-2.9L142,101.3z M131.4,104.1
		c-0.9,0-1.6,0.5-1.6,1.9c-0.1,0.9,0.5,1.7,1.3,1.8c0.1,0,0.2,0,0.3,0c0.9,0.1,1.7-0.6,1.7-1.5c0-0.1,0-0.2,0-0.3
		c0.1-0.9-0.5-1.7-1.4-1.8C131.6,104.2,131.5,104.2,131.4,104.1L131.4,104.1z M142.8,111.4c2.7-0.4,5.3,1.5,5.7,4.2
		s-1.5,5.3-4.2,5.7c-0.5,0.1-0.9,0.1-1.4,0c-2.7,0.4-5.3-1.5-5.7-4.2s1.5-5.3,4.2-5.7C141.8,111.3,142.3,111.3,142.8,111.4z
		 M142.8,114.5c-0.9,0-1.7,0.5-1.7,1.9c-0.1,0.9,0.5,1.7,1.3,1.8c0.1,0,0.2,0,0.4,0c0.9,0.1,1.6-0.6,1.7-1.4c0-0.1,0-0.2,0-0.4
		c0.1-0.9-0.5-1.7-1.4-1.8C143,114.6,142.9,114.6,142.8,114.5L142.8,114.5z"/>
</g>
</svg>
