<svg id="Glyphs" xmlns="http://www.w3.org/2000/svg" viewBox="0 0 284 194"><defs><style>.cls-1{fill:#2080cd;}.cls-2,.cls-3{fill:#fff;}.cls-2{stroke:#fff;stroke-width:12px;}.cls-3{stroke:#2080cd;stroke-width:4px;}</style></defs><title>CDL-7793_</title><path class="cls-1" d="M171.83,92.32l5.24,3.58a2.75,2.75,0,0,0,3.81-.7l6.22-9a2.7,2.7,0,0,0-.7-3.78L141.08,51.53a8.42,8.42,0,0,0-9.33,0L86.43,82.46a2.7,2.7,0,0,0-.7,3.78l6.22,9a2.75,2.75,0,0,0,3.81.7L101,92.32l1.44-1v38H94.66a2.82,2.82,0,0,0-2.82,2.8v2.91H181v-2.91a2.82,2.82,0,0,0-2.82-2.8h-7.79v-38ZM138,62.61a2.76,2.76,0,0,0-3.11,0L106.12,82.22,94.91,89.88l-2.07-3-1-1.49L134.86,56A2.8,2.8,0,0,1,138,56L181,85.4l-1,1.49-2.07,3-11.21-7.65Zm6.18,66.73H128.69V97.57h15.46Zm5.48,0V102.16h0v-7.3a2.79,2.79,0,0,0-2.74-2.72H125.94a2.79,2.79,0,0,0-2.74,2.72v7.3h0v27.17H107.93V93.9h0V87.59l28.49-19.45,28.49,19.45V93.9h0v35.44Z"/><rect class="cls-2" x="134.74" y="117.36" width="64.01" height="26.53" rx="13.26" ry="13.26"/><rect class="cls-3" x="134.74" y="117.36" width="64.01" height="26.53" rx="13.26" ry="13.26"/><path class="cls-1" d="M152.16,131.74h-2.08v4.78h-2.84V123.18h6.24a4.15,4.15,0,0,1,4.48,4.3,3.83,3.83,0,0,1-2.92,4l3,5.08h-3.26Zm.9-6.12h-3v3.68h3a1.85,1.85,0,1,0,0-3.68Z"/><path class="cls-1" d="M163.82,126.62c2.88,0,4.84,2.16,4.84,5.32v.56h-7.18a2.6,2.6,0,0,0,2.78,2.24,4,4,0,0,0,2.58-1l1.12,1.64a6,6,0,0,1-4,1.34,5.07,5.07,0,1,1-.16-10.14Zm-2.38,4.16h4.76a2.24,2.24,0,0,0-2.38-2.14A2.32,2.32,0,0,0,161.44,130.78Z"/><path class="cls-1" d="M177,130.68a1.57,1.57,0,0,0-1.78-1.8A2.75,2.75,0,0,0,173,130v6.5H170.5v-9.66H173v1.26a4.42,4.42,0,0,1,3.38-1.5,2.81,2.81,0,0,1,3.14,3.08v6.82H177Z"/><path class="cls-1" d="M182.58,134.12v-5H181v-2.22h1.6v-2.64h2.56v2.64h2v2.22h-2v4.36c0,.6.32,1.06.88,1.06a1.39,1.39,0,0,0,.88-.28l.54,1.92a3.14,3.14,0,0,1-2.12.62A2.41,2.41,0,0,1,182.58,134.12Z"/></svg>